# xmcd CD database file
#
# Track frame offsets:
#	150
#	17917
#	35872
#	51310
#	69095
#	85717
#	103970
#	122892
#	138635
#	150757
#	169382
#	184500
#
# Disc length: 2717 seconds
#
# Revision: 0
# Processed by: cddbd v1.5.1PL2 Copyright (c) Steve Scherf et al.
# Submitted via: CDex 1.51
#
DISCID=a10a9b0c
DTITLE=岩渕まこと - paradise
DYEAR=1990
DGENRE=JPop
TTITLE0=風はどこから
TTITLE1=180度
TTITLE2=心にメロディ
TTITLE3=イエスは君を
TTITLE4=銀色ヒコーキ
TTITLE5=贈り物
TTITLE6=父の涙
TTITLE7=イエスにゆだねて
TTITLE8=恵みの雨
TTITLE9=青空
TTITLE10=パラダイス
TTITLE11=祈り
EXTD=YEAR: 1990
EXTT0=
EXTT1=
EXTT2=
EXTT3=
EXTT4=
EXTT5=
EXTT6=
EXTT7=
EXTT8=
EXTT9=
EXTT10=
EXTT11=
PLAYORDER=
